<svg height="433pt" viewBox="-22 0 433 433.70496" width="433pt" xmlns="http://www.w3.org/2000/svg"><path d="m375.820312 106.023438c0 26.394531-21.394531 47.789062-47.789062 47.789062-26.390625 0-47.785156-21.394531-47.785156-47.789062 0-26.390626 21.394531-47.785157 47.785156-47.785157 26.394531 0 47.789062 21.394531 47.789062 47.785157zm0 0" fill="#d7e9ff" fill-rule="evenodd"/><path d="m328.03125 160.636719c-30.109375 0-54.613281-24.5-54.613281-54.613281 0-30.109376 24.503906-54.613282 54.613281-54.613282 30.113281 0 54.613281 24.503906 54.613281 54.613282 0 30.113281-24.5 54.613281-54.613281 54.613281zm0-95.570313c-22.585938 0-40.957031 18.371094-40.957031 40.957032 0 22.585937 18.371093 40.960937 40.957031 40.960937s40.960938-18.375 40.960938-40.960937c0-22.585938-18.375-40.957032-40.960938-40.957032zm0 0" fill="#0e65e5"/><path d="m211.980469 426.878906h-112.835938c-19.1875-30.570312-30.523437-68.34375-30.523437-109.226562 0-116.054688 61.4375-143.359375 61.4375-191.148438 0-47.785156-27.304688-47.785156-27.304688-95.574218 0-1.566407.007813-3.128907.027344-4.6875 13.445312 7.25 29.9375 11.515624 47.757812 11.515624 28.496094 0 53.589844-10.910156 68.265626-27.464843 14.679687 16.554687 39.773437 27.464843 68.269531 27.464843 20.941406 0 40.054687-5.894531 54.535156-15.59375.050781 2.902344.078125 5.828126.078125 8.765626 0 47.789062-27.308594 47.789062-27.308594 95.574218 0 47.789063 68.265625 75.09375 68.265625 191.148438 0 40.882812-11.335937 78.65625-30.523437 109.226562h-112.835938v-20.480468h-27.304687zm0 0" fill="#d7e9ff" fill-rule="evenodd"/><path d="m355.890625 433.703125h-123.429687v-20.476563h-13.65625v20.476563h-123.433594l-2.003906-3.199219c-20.65625-32.902344-31.574219-71.925781-31.574219-112.851562 0-72.59375 24.046875-112.421875 41.601562-141.507813 11.085938-18.359375 19.839844-32.859375 19.839844-49.640625 0-22.078125-6.195313-32.921875-12.753906-44.398437-7.15625-12.519531-14.554688-25.46875-14.554688-51.175781l.175781-16.050782 9.917969 5.351563c12.980469 7 28.375 10.699219 44.519531 10.699219 25.578126 0 49.1875-9.40625 63.160157-25.164063l5.105469-5.765625 5.109374 5.765625c13.972657 15.757813 37.578126 25.164063 63.160157 25.164063 18.8125 0 36.832031-5.125 50.738281-14.4375l10.425781-6.980469.203125 12.546875c.046875 2.941406.070313 5.898437.070313 8.875 0 25.707031-7.398438 38.652344-14.554688 51.175781-6.558593 11.476563-12.75 22.316406-12.75 44.394531 0 16.601563 9.699219 31.0625 21.976563 49.367188 19.535156 29.125 46.289062 69.015625 46.289062 141.78125 0 40.925781-10.917968 79.953125-31.574218 112.851562zm-109.777344-13.652344h102.1875c18.011719-30.046875 27.519531-65.363281 27.519531-102.398437 0-68.617188-24.382812-104.96875-43.976562-134.175782-13.03125-19.433593-24.292969-36.21875-24.292969-56.972656 0-25.703125 7.402344-38.652344 14.554688-51.171875 6.253906-10.945312 12.179687-21.320312 12.714843-41.414062-14.15625 6.925781-30.710937 10.667969-47.746093 10.667969-26.5625 0-51.511719-9.074219-68.265625-24.554688-16.753906 15.480469-41.699219 24.554688-68.265625 24.554688-14.367188 0-28.265625-2.601563-40.792969-7.582032 1.023438 18.101563 6.65625 27.957032 12.582031 38.328125 7.152344 12.519531 14.554688 25.46875 14.554688 51.171875 0 20.578125-10.109375 37.324219-21.808594 56.699219-17.652344 29.257813-39.632813 65.65625-39.632813 134.449219 0 37.035156 9.507813 72.351562 27.519532 102.398437h102.1875v-20.480469h40.960937zm0 0" fill="#0e65e5"/><path d="m150.539062 71.890625c28.496094 0 53.589844-10.910156 68.265626-27.464844 14.679687 16.554688 39.773437 27.464844 68.269531 27.464844 19.070312 0 36.582031-4.929687 50.503906-13.125 2.464844-7.359375 4.109375-16.160156 4.109375-27.835937 0-2.9375-.027344-5.863282-.078125-8.765626-14.480469 9.699219-33.59375 15.59375-54.535156 15.59375-28.496094 0-53.589844-10.910156-68.269531-27.464843-14.675782 16.554687-39.769532 27.464843-68.265626 27.464843-17.820312 0-34.3125-4.265624-47.757812-11.515624-.019531 1.558593-.027344 3.121093-.027344 4.6875 0 14.117187 2.410156 24.015624 5.765625 32.253906 12.289063 5.523437 26.652344 8.707031 42.019531 8.707031zm0 0" fill="#0e65e5" fill-rule="evenodd"/><path d="m287.074219 78.71875c-26.566407 0-51.515625-9.074219-68.269531-24.550781-16.75 15.476562-41.699219 24.550781-68.265626 24.550781-15.765624 0-31.265624-3.21875-44.820312-9.308594-1.601562-.71875-2.859375-2.027344-3.519531-3.652344-4.28125-10.511718-6.273438-21.578124-6.273438-34.828124l.027344-4.777344c.035156-2.386719 1.308594-4.585938 3.367187-5.796875 2.054688-1.214844 4.59375-1.261719 6.699219-.121094 12.980469 6.996094 28.375 10.695313 44.519531 10.695313 25.578126 0 49.1875-9.40625 63.160157-25.164063 2.585937-2.917969 7.625-2.917969 10.214843 0 13.972657 15.757813 37.578126 25.164063 63.160157 25.164063 18.8125 0 36.832031-5.125 50.738281-14.4375 2.089844-1.390626 4.761719-1.523438 6.964844-.371094 2.210937 1.160156 3.621094 3.441406 3.660156 5.9375.046875 2.941406.070312 5.898437.070312 8.875 0 11.199218-1.460937 21.015625-4.460937 29.996094-.519531 1.566406-1.585937 2.886718-3.007813 3.71875-15.621093 9.203124-34.285156 14.070312-53.964843 14.070312zm-68.269531-41.121094c1.953124 0 3.8125.839844 5.109374 2.300782 13.972657 15.757812 37.578126 25.167968 63.160157 25.167968 16.296875 0 31.726562-3.769531 44.796875-10.90625 1.800781-6.167968 2.757812-12.714844 2.945312-20.242187-14.15625 6.925781-30.710937 10.667969-47.742187 10.667969-26.566407 0-51.515625-9.074219-68.269531-24.554688-16.75 15.480469-41.699219 24.554688-68.265626 24.554688-14.367187 0-28.265624-2.601563-40.792968-7.582032.449218 7.75 1.785156 14.585938 4.113281 21.046875 11.191406 4.59375 23.816406 7.015625 36.679687 7.015625 25.578126 0 49.1875-9.410156 63.160157-25.167968 1.292969-1.460938 3.152343-2.300782 5.105469-2.300782zm0 0" fill="#0e65e5"/><path d="m376.667969 262.378906c-1.980469-8.5-4.371094-16.347656-7.046875-23.640625-42.085938 15.265625-94.285156 24.300781-150.816406 24.300781-51.644532 0-99.675782-7.539062-139.683594-20.484374-1.902344 6.152343-3.621094 12.683593-5.089844 19.65625 38.601562 9.839843 83.523438 48.679687 115.859375 104.683593 7.585937 13.136719 14.003906 26.398438 19.25 39.503907h33.066406c5.246094-13.105469 11.667969-26.363282 19.25-39.503907 32.15625-55.695312 76.757813-94.410156 115.210938-104.515625zm0 0" fill="#94c1ff" fill-rule="evenodd"/><path d="m246.824219 413.226562h-42.304688l-1.722656-4.289062c-5.21875-13.039062-11.554687-26.03125-18.820313-38.625-30.5-52.820312-73.273437-91.707031-111.632812-101.484375l-6.339844-1.617187 1.347656-6.40625c1.441407-6.832032 3.203126-13.652344 5.246094-20.265626l2.042969-6.617187 6.582031 2.132813c40.742188 13.191406 88.316406 20.15625 137.582032 20.15625 54.054687 0 105.402343-8.257813 148.488281-23.894532l6.386719-2.3125 2.347656 6.378906c2.902344 7.890626 5.351562 16.113282 7.292968 24.445313l1.507813 6.464844-6.421875 1.683593c-38.199219 10.039063-80.746094 48.867188-111.03125 101.335938-7.269531 12.582031-13.597656 25.574219-18.828125 38.625zm-33.105469-13.65625h23.90625c5.109375-12.203124 11.128906-24.324218 17.921875-36.085937 30.386719-52.640625 73.105469-92.480469 112.921875-105.777344-.925781-3.453125-1.941406-6.882812-3.050781-10.253906-43.164063 14.671875-93.679688 22.410156-146.613281 22.410156-48.003907 0-94.53125-6.460937-135.078126-18.71875-.566406 2.09375-1.113281 4.195313-1.621093 6.308594 40.039062 13.027344 83.058593 52.976563 113.703125 106.03125 6.789062 11.773437 12.804687 23.894531 17.910156 36.085937zm0 0" fill="#0e65e5"/><path d="m306.996094 174.292969h-299.816406v-75.09375h368.640624v6.269531c0 38.011719-30.8125 68.824219-68.824218 68.824219zm0 0" fill="#288eea" fill-rule="evenodd"/><g fill="#0e65e5"><path d="m307 181.117188h-299.820312c-3.773438 0-6.828126-3.054688-6.828126-6.824219v-75.09375c0-3.773438 3.054688-6.828125 6.828126-6.828125h368.640624c3.769532 0 6.824219 3.054687 6.824219 6.828125v6.273437c0 41.714844-33.929687 75.644532-75.644531 75.644532zm-292.996094-13.652344h292.996094c34 0 61.691406-27.507813 61.992188-61.441406h-354.988282zm0 0"/><path d="m48.140625 140.160156c-3.773437 0-6.828125-3.058594-6.828125-6.828125v-27.308593c0-3.769532 3.054688-6.824219 6.828125-6.824219 3.769531 0 6.824219 3.054687 6.824219 6.824219v27.308593c0 3.773438-3.054688 6.828125-6.824219 6.828125zm0 0"/><path d="m82.273438 153.8125c-3.773438 0-6.828126-3.054688-6.828126-6.828125v-40.960937c0-3.769532 3.054688-6.824219 6.828126-6.824219 3.769531 0 6.824218 3.054687 6.824218 6.824219v40.960937c0 3.777344-3.054687 6.828125-6.824218 6.828125zm0 0"/><path d="m116.40625 140.160156c-3.773438 0-6.828125-3.058594-6.828125-6.828125v-27.308593c0-3.769532 3.054687-6.824219 6.828125-6.824219 3.769531 0 6.828125 3.054687 6.828125 6.824219v27.308593c0 3.773438-3.058594 6.828125-6.828125 6.828125zm0 0"/><path d="m150.539062 153.8125c-3.773437 0-6.828124-3.054688-6.828124-6.828125v-40.960937c0-3.769532 3.054687-6.824219 6.828124-6.824219 3.773438 0 6.828126 3.054687 6.828126 6.824219v40.960937c0 3.777344-3.054688 6.828125-6.828126 6.828125zm0 0"/><path d="m184.671875 140.160156c-3.769531 0-6.824219-3.058594-6.824219-6.828125v-27.308593c0-3.769532 3.054688-6.824219 6.824219-6.824219 3.773437 0 6.828125 3.054687 6.828125 6.824219v27.308593c0 3.773438-3.054688 6.828125-6.828125 6.828125zm0 0"/><path d="m218.804688 153.8125c-3.769532 0-6.824219-3.054688-6.824219-6.828125v-40.960937c0-3.769532 3.054687-6.824219 6.824219-6.824219 3.773437 0 6.828124 3.054687 6.828124 6.824219v40.960937c0 3.777344-3.054687 6.828125-6.828124 6.828125zm0 0"/><path d="m252.9375 140.160156c-3.769531 0-6.824219-3.058594-6.824219-6.828125v-27.308593c0-3.769532 3.054688-6.824219 6.824219-6.824219 3.773438 0 6.828125 3.054687 6.828125 6.824219v27.308593c0 3.773438-3.054687 6.828125-6.828125 6.828125zm0 0"/><path d="m287.074219 153.8125c-3.773438 0-6.828125-3.054688-6.828125-6.828125v-40.960937c0-3.769532 3.054687-6.824219 6.828125-6.824219 3.769531 0 6.824219 3.054687 6.824219 6.824219v40.960937c0 3.777344-3.054688 6.828125-6.824219 6.828125zm0 0"/><path d="m321.207031 140.160156c-3.773437 0-6.828125-3.058594-6.828125-6.828125v-27.308593c0-3.769532 3.054688-6.824219 6.828125-6.824219 3.769531 0 6.824219 3.054687 6.824219 6.824219v27.308593c0 3.773438-3.054688 6.828125-6.824219 6.828125zm0 0"/></g><path d="m300.726562 181.117188c-3.773437 0-6.828124-3.054688-6.828124-6.824219v-27.308594c0-3.769531 3.054687-6.824219 6.828124-6.824219 3.769532 0 6.824219 3.054688 6.824219 6.824219v27.308594c0 3.773437-3.054687 6.824219-6.824219 6.824219zm0 0" fill="#fff"/><path d="m314.378906 167.464844h-27.304687c-3.773438 0-6.828125-3.054688-6.828125-6.828125 0-3.769531 3.054687-6.824219 6.828125-6.824219h27.304687c3.773438 0 6.828125 3.054688 6.828125 6.824219 0 3.773437-3.054687 6.828125-6.828125 6.828125zm0 0" fill="#fff"/><path d="m218.804688 249.386719c-30.160157 0-58.257813-2.953125-77.078126-8.101563-3.640624-.992187-5.78125-4.753906-4.785156-8.386718 1-3.636719 4.777344-5.742188 8.386719-4.785157 17.699219 4.839844 44.476563 7.617188 73.476563 7.617188 28.894531 0 55.613281-2.761719 73.308593-7.574219 3.640625-1.003906 7.386719 1.15625 8.378907 4.792969.996093 3.640625-1.160157 7.394531-4.789063 8.378906-18.816406 5.125-46.84375 8.058594-76.898437 8.058594zm0 0" fill="#fff"/></svg>