<svg height="423pt" viewBox="-54 0 423 423.12087" width="423pt" xmlns="http://www.w3.org/2000/svg"><path d="m200.90625 28.457031c-17.632812 0-33.402344 8.027344-44.140625 20.671875-10.738281-12.644531-26.507813-20.671875-44.136719-20.671875-32.347656 0-58.570312 26.90625-58.570312 60.09375s36.195312 124.546875 68.542968 124.546875c7.230469 0 24.148438-4.179687 34.164063-11.472656 10.019531 7.292969 26.9375 11.472656 34.164063 11.472656 32.34375 0 68.542968-91.359375 68.542968-124.546875s-26.21875-60.09375-58.566406-60.09375zm0 0" fill="#94c1ff" fill-rule="evenodd"/><g fill="#0e65e5"><path d="m190.925781 219.921875c-7.492187 0-22.890625-3.59375-34.160156-10.167969-11.273437 6.574219-26.675781 10.167969-34.167969 10.167969-37.886718 0-75.363281-96.59375-75.363281-131.371094 0-36.902343 29.332031-66.917969 65.390625-66.917969 16.410156 0 32.125 6.335938 44.140625 17.609376 12.007813-11.273438 27.726563-17.609376 44.136719-17.609376 36.058594 0 65.398437 30.019532 65.398437 66.917969 0 34.777344-37.484375 131.371094-75.375 131.371094zm-34.160156-26.734375 4.023437 2.917969c9.03125 6.574219 24.644532 10.164062 30.136719 10.164062 11.074219 0 26.503907-17.621093 40.261719-45.980469 12.433594-25.636718 21.460938-55.804687 21.460938-71.742187 0-29.371094-23.214844-53.265625-51.746094-53.265625-14.886719 0-29.074219 6.660156-38.925782 18.269531l-5.207031 6.125-5.199219-6.125c-9.867187-11.605469-24.058593-18.269531-38.9375-18.269531-28.527343 0-51.738281 23.894531-51.738281 53.265625 0 15.9375 9.027344 46.113281 21.449219 71.742187 13.761719 28.359376 29.1875 45.980469 40.261719 45.980469 5.492187 0 21.117187-3.589843 30.152343-10.164062zm0 0"/><path d="m190.925781 185.792969c-7.226562 0-24.144531-4.183594-34.164062-11.472657-10.015625 7.289063-26.933594 11.472657-34.160157 11.472657-28.507812 0-59.992187-70.941407-67.066406-110.5-.941406 4.269531-1.480468 8.695312-1.480468 13.261719 0 33.1875 36.199218 124.542968 68.546874 124.542968 7.230469 0 24.148438-4.179687 34.160157-11.472656 10.019531 7.292969 26.9375 11.472656 34.164062 11.472656 32.347657 0 68.546875-91.359375 68.546875-124.546875 0-4.566406-.539062-8.988281-1.476562-13.261719-7.074219 39.5625-38.5625 110.503907-67.070313 110.503907zm0 0" fill-rule="evenodd"/><path d="m190.925781 219.921875c-7.492187 0-22.890625-3.59375-34.160156-10.167969-11.273437 6.574219-26.671875 10.167969-34.160156 10.167969-37.886719 0-75.371094-96.59375-75.371094-131.371094 0-4.847656.542969-9.800781 1.632813-14.726562.699218-3.179688 3.527343-5.441407 6.800781-5.359375 3.253906.070312 6.011719 2.421875 6.585937 5.625 7.242188 40.457031 37.800782 104.875 60.355469 104.875 5.484375 0 21.109375-3.585938 30.148437-10.160156 2.382813-1.75 5.628907-1.75 8.03125 0 9.035157 6.574218 24.648438 10.160156 30.140626 10.160156 22.558593 0 53.117187-64.417969 60.347656-104.875.574218-3.203125 3.328125-5.558594 6.589844-5.625 3.292968-.039063 6.097656 2.179687 6.796874 5.359375 1.085938 4.945312 1.640626 9.898437 1.640626 14.726562-.003907 34.777344-37.488282 131.371094-75.378907 131.371094zm-34.160156-25.117187c1.40625 0 2.820313.433593 4.023437 1.304687 9.03125 6.574219 24.644532 10.164063 30.136719 10.164063 10.792969 0 25.722657-16.734376 39.207031-43.84375-11.714843 17.59375-25.304687 30.1875-39.207031 30.1875-7.492187 0-22.890625-3.59375-34.160156-10.167969-11.273437 6.574219-26.671875 10.167969-34.160156 10.167969-13.90625 0-27.507813-12.605469-39.226563-30.21875 13.492188 27.125 28.425782 43.875 39.226563 43.875 5.484375 0 21.109375-3.589844 30.148437-10.164063 1.191406-.871094 2.605469-1.304687 4.011719-1.304687zm0 0"/><path d="m158.570312 56.90625c-2.707031 0-5.273437-1.621094-6.339843-4.292969-4.953125-12.394531-4.882813-23.355469.226562-32.585937 8.777344-15.867188 29.25-19.753906 30.117188-19.90625 3.714843-.707032 7.265625 1.777344 7.933593 5.492187.671876 3.699219-1.773437 7.246094-5.476562 7.929688-.144531.027343-15.066406 2.949219-20.660156 13.144531-3 5.460938-2.820313 12.476562.53125 20.859375 1.402344 3.496094-.304688 7.46875-3.804688 8.871094-.820312.335937-1.683594.488281-2.527344.488281zm0 0"/><path d="m81.980469 88.613281c-3.773438 0-6.828125-3.054687-6.828125-6.824219 0-18.824218 15.3125-34.136718 34.132812-34.136718 3.773438 0 6.828125 3.058594 6.828125 6.828125 0 3.773437-3.054687 6.828125-6.828125 6.828125-11.292968 0-20.476562 9.183594-20.476562 20.480468 0 3.773438-3.054688 6.824219-6.828125 6.824219zm0 0"/></g><path d="m286.78125 252.453125h-259.414062c-11.3125 0-20.480469-9.167969-20.480469-20.480469 0-11.308594 9.167969-20.476562 20.480469-20.476562h259.414062c11.3125 0 20.480469 9.167968 20.480469 20.476562 0 11.3125-9.167969 20.480469-20.480469 20.480469zm0 0" fill="#d7e9ff" fill-rule="evenodd"/><path d="m286.78125 259.28125h-259.414062c-15.058594 0-27.3085942-12.246094-27.3085942-27.308594 0-15.058594 12.2500002-27.304687 27.3085942-27.304687h259.414062c15.058594 0 27.304688 12.246093 27.304688 27.304687 0 15.0625-12.246094 27.308594-27.304688 27.308594zm-259.414062-40.960938c-7.527344 0-13.652344 6.128907-13.652344 13.652344 0 7.527344 6.125 13.65625 13.652344 13.65625h259.414062c7.527344 0 13.652344-6.128906 13.652344-13.65625 0-7.523437-6.125-13.652344-13.652344-13.652344zm0 0" fill="#0e65e5"/><path d="m129.765625 252.453125h54.613281v34.132813h-54.613281zm0 0" fill="#94c1ff" fill-rule="evenodd"/><path d="m191.207031 293.414062h-68.265625v-47.785156h68.265625zm-54.613281-13.652343h40.960938v-20.480469h-40.960938zm0 0" fill="#0e65e5"/><path d="m257.445312 416.292969h-193.917968c-12.027344 0-21.410156-10.417969-20.152344-22.382813l9.386719-89.183594c1.085937-10.3125 9.78125-18.140624 20.152343-18.140624h175.144532c10.371094 0 19.066406 7.828124 20.152344 18.140624l9.386718 89.183594c1.261719 11.964844-8.121094 22.382813-20.152344 22.382813zm0 0" fill="#d7e9ff" fill-rule="evenodd"/><path d="m257.445312 423.121094h-193.917968c-7.660156 0-14.996094-3.265625-20.125-8.960938-5.125-5.691406-7.609375-13.339844-6.8125-20.96875l9.394531-89.179687c1.445313-13.828125 13.023437-24.25 26.933594-24.25h175.144531c13.90625 0 25.488281 10.425781 26.933594 24.25l9.394531 89.179687c.800781 7.625-1.6875 15.277344-6.8125 20.96875-5.136719 5.695313-12.472656 8.960938-20.132813 8.960938zm-184.53125-129.707032c-6.898437 0-12.640624 5.167969-13.359374 12.023438l-9.394532 89.183594c-.398437 3.839844.800782 7.53125 3.386719 10.398437 2.582031 2.867188 6.128906 4.449219 9.980469 4.449219h193.917968c3.855469 0 7.402344-1.582031 9.980469-4.449219 2.589844-2.867187 3.785157-6.558593 3.386719-10.398437l-9.394531-89.183594c-.71875-6.859375-6.460938-12.023438-13.359375-12.023438zm0 0" fill="#0e65e5"/><path d="m198.035156 351.441406c0 20.734375-16.8125 37.546875-37.546875 37.546875-20.738281 0-37.546875-16.8125-37.546875-37.546875 0-20.738281 16.808594-37.546875 37.546875-37.546875 20.734375 0 37.546875 16.808594 37.546875 37.546875zm0 0" fill="#94c1ff" fill-rule="evenodd"/><path d="m160.488281 395.8125c-24.46875 0-44.375-19.90625-44.375-44.371094 0-24.46875 19.90625-44.375 44.375-44.375 24.464844 0 44.371094 19.90625 44.371094 44.375 0 24.464844-19.90625 44.371094-44.371094 44.371094zm0-75.089844c-16.941406 0-30.722656 13.777344-30.722656 30.71875s13.78125 30.71875 30.722656 30.71875c16.9375 0 30.71875-13.777344 30.71875-30.71875s-13.78125-30.71875-30.71875-30.71875zm0 0" fill="#0e65e5"/><path d="m204.859375 197.839844c-3.769531 0-6.824219-3.054688-6.824219-6.824219v-27.308594c0-3.769531 3.054688-6.824219 6.824219-6.824219 3.773437 0 6.828125 3.054688 6.828125 6.824219v27.308594c0 3.773437-3.054688 6.824219-6.828125 6.824219zm0 0" fill="#fff"/><path d="m218.515625 184.1875h-27.308594c-3.773437 0-6.828125-3.054688-6.828125-6.828125 0-3.769531 3.054688-6.824219 6.828125-6.824219h27.308594c3.769531 0 6.824219 3.054688 6.824219 6.824219 0 3.773437-3.054688 6.828125-6.824219 6.828125zm0 0" fill="#fff"/><path d="m75.152344 238.800781h-47.785156c-3.773438 0-6.828126-3.054687-6.828126-6.828125 0-3.769531 3.054688-6.824218 6.828126-6.824218h47.785156c3.773437 0 6.828125 3.054687 6.828125 6.824218 0 3.773438-3.054688 6.828125-6.828125 6.828125zm0 0" fill="#fff"/></svg>