<?xml version="1.0" encoding="utf-8"?>
<svg viewBox="0 0 500 500" xmlns="http://www.w3.org/2000/svg">
  <g transform="matrix(1.777166, 0, 0, 2.074974, 6.65763, -122.145035)">
    <g id="SvgjsG1018" rel="mainfill" name="main_text" transform="matrix(1, 0, 0, 1, 3.063618, -26.203657)" fill="#000000">
      <path d="M19.44 211.78C17.91 211.78 16.14 211.58 14.85 212.47C11.19 215.04 12.68 223.94 7.57 223.94L7.57 214.00L9.10 212.95L9.10 211.78L1.97 211.78L1.97 212.95L3.50 214.00C3.50 221.89 3.50 229.74 3.50 237.63L1.73 238.83L1.73 240C4.03 240 7.04 240 9.38 240L9.38 238.83L7.57 237.63C7.57 233.80 7.57 230.02 7.57 226.19L8.78 226.19C11.31 226.19 12.24 228.21 12.76 230.70L13.93 236.30C14.41 238.55 15.30 240.24 17.87 240.24C18.60 240.24 19.76 240.16 20.57 239.72L20.57 238.15C19.32 238.43 18.48 237.10 18.19 235.77L16.95 229.90C16.38 227.32 15.26 224.82 13.16 224.62L13.16 224.54C15.01 223.94 16.26 217.38 17.15 215.28C17.67 214.04 18.07 213.31 19.44 213.35L19.44 211.78ZM28.42 216.69L29.71 215.69L29.71 214.60L23.27 214.60L23.27 215.69L24.55 216.69C24.55 223.74 24.55 230.74 24.55 237.79L23.03 238.91L23.03 240C25.12 240 27.86 240 29.91 240L29.91 238.91L28.42 237.79ZM41.38 216.93C43.84 216.93 44.60 218.26 44.60 220.52C44.60 221.56 44.60 222.73 44.60 223.82C44.60 226.07 43.72 227.40 41.34 227.40L39.13 227.40C39.13 223.50 39.13 220.84 39.13 216.93ZM44.24 236.70C44.96 238.63 45.21 240.28 47.54 240.24C48.34 240.24 49.47 240.12 50.24 239.76L50.24 238.27C49.11 238.47 48.51 237.14 48.14 236.18C47.58 234.61 47.02 233.08 46.45 231.51C46.05 230.42 45.61 229.74 44.52 229.13C46.82 228.65 48.55 226.92 48.55 223.82C48.55 222.73 48.55 221.56 48.55 220.52C48.55 216.05 45.29 214.60 41.38 214.60L34.01 214.60L34.01 215.69L35.30 216.69C35.30 223.66 35.30 230.78 35.30 237.79L33.77 238.91L33.77 240C35.87 240 38.56 240 40.70 240L40.70 238.91L39.17 237.79C39.17 235.49 39.17 231.83 39.17 229.61C41.26 229.61 41.74 230.14 42.47 232.03ZM58.73 216.69L60.02 215.69L60.02 214.60L53.58 214.60L53.58 215.69L54.87 216.69C54.87 223.74 54.87 230.74 54.87 237.79L53.34 238.91L53.34 240C55.43 240 58.17 240 60.22 240L60.22 238.91L58.73 237.79ZM77.33 240L77.29 234.32L75.64 234.32L74.35 237.71C72.34 237.71 70.73 237.71 68.71 237.71L68.71 237.54C68.71 237.54 69.52 236.98 69.52 236.38C69.52 229.82 69.52 223.25 69.52 216.69L70.81 215.69L70.81 214.60L64.25 214.60L64.25 215.69L65.57 216.69C65.57 223.74 65.57 230.74 65.57 237.79L64.00 238.91L64.00 240ZM93.31 240L93.27 234.32L91.62 234.32L90.33 237.71C88.32 237.71 86.71 237.71 84.69 237.71L84.69 237.54C84.69 237.54 85.50 236.98 85.50 236.38C85.50 229.82 85.50 223.25 85.50 216.69L86.79 215.69L86.79 214.60L80.23 214.60L80.23 215.69L81.55 216.69C81.55 223.74 81.55 230.74 81.55 237.79L79.98 238.91L79.98 240ZM104.30 214.28C107.08 214.28 108.00 215.77 108.00 218.34L108.00 222.01C108.00 224.58 106.95 226.07 104.26 226.07L101.68 226.07C101.68 221.68 101.68 218.67 101.68 214.28ZM107.60 236.30C108.40 238.43 108.65 240.24 111.18 240.24C112.07 240.24 113.31 240.12 114.12 239.72L114.12 238.15C112.83 238.43 112.11 236.86 111.70 235.77L109.81 230.58C109.37 229.33 108.85 228.57 107.64 227.92C110.26 227.40 112.19 225.47 112.19 222.01L112.19 218.34C112.19 213.43 108.65 211.78 104.30 211.78L96.13 211.78L96.13 212.95L97.62 214.00C97.62 221.81 97.62 229.82 97.62 237.63L95.84 238.83L95.84 240C98.18 240 101.16 240 103.49 240L103.49 238.83L101.72 237.63C101.72 235.05 101.72 230.94 101.72 228.41C104.10 228.41 104.82 228.97 105.63 231.14ZM126.52 233.20L127.69 238.19L126.44 239.03L126.44 240L133.00 240L133.00 238.83L131.71 237.99L125.91 214.48L122.01 214.48C120.16 221.89 118.15 230.66 116.37 238.11L115.09 238.83L115.09 240L120.16 240L120.16 238.83L118.83 238.15L120.00 233.20ZM123.26 219.11L125.99 231.02L120.48 231.02C121.41 226.84 122.45 222.25 123.22 219.11ZM135.41 214.60L135.25 220.48L137.06 220.48L138.35 216.89C139.92 216.89 141.45 216.89 143.02 216.89L134.53 238.91C134.53 239.32 134.53 239.64 134.53 240C139.00 240 143.42 240 147.85 240L148.01 234.12L146.20 234.12L144.91 237.71C143.10 237.71 141.29 237.71 139.40 237.71L147.61 215.93L147.61 214.60ZM156.23 228.85L156.23 237.58L154.74 238.75L154.74 240C156.79 240 159.61 240 161.74 240L161.74 238.75L160.21 237.58L160.21 228.37L164.84 216.37L166.21 215.69L166.21 214.64L160.85 214.64L160.85 215.69L162.22 216.37L158.88 224.95L155.54 216.21C155.06 215.00 154.78 214.64 153.41 214.64L150.07 214.64L150.07 215.73L151.03 216.09ZM173.25 221.12C173.25 217.94 174.74 216.89 176.47 216.89C178.12 216.89 179.81 217.58 179.81 219.63L179.81 221.64L183.76 221.64L183.76 214.56L181.14 214.56L180.82 215.73L180.70 215.73C179.61 214.64 177.88 214.40 176.43 214.40C173.05 214.40 169.27 216.37 169.27 221.12C169.27 225.27 169.27 229.41 169.27 233.56C169.27 238.11 172.41 240.28 176.67 240.28C178.28 240.28 180.06 239.68 180.98 238.23L181.38 240L183.88 240C183.88 236.30 183.88 232.59 183.88 228.93L177.84 228.93L177.84 230.06L179.85 231.35L179.85 234.00C179.85 236.14 179.01 237.79 176.59 237.79C174.54 237.79 173.25 236.54 173.25 233.56ZM195.88 216.93C198.33 216.93 199.10 218.26 199.10 220.52C199.10 221.56 199.10 222.73 199.10 223.82C199.10 226.07 198.21 227.40 195.84 227.40L193.62 227.40C193.62 223.50 193.62 220.84 193.62 216.93ZM198.73 236.70C199.46 238.63 199.70 240.28 202.03 240.24C202.84 240.24 203.97 240.12 204.73 239.76L204.73 238.27C203.60 238.47 203.00 237.14 202.64 236.18C202.07 234.61 201.51 233.08 200.95 231.51C200.54 230.42 200.10 229.74 199.02 229.13C201.31 228.65 203.04 226.92 203.04 223.82C203.04 222.73 203.04 221.56 203.04 220.52C203.04 216.05 199.78 214.60 195.88 214.60L188.51 214.60L188.51 215.69L189.80 216.69C189.80 223.66 189.80 230.78 189.80 237.79L188.27 238.91L188.27 240C190.36 240 193.06 240 195.19 240L195.19 238.91L193.66 237.79C193.66 235.49 193.66 231.83 193.66 229.61C195.75 229.61 196.24 230.14 196.96 232.03ZM217.61 233.20L218.78 238.19L217.53 239.03L217.53 240L224.09 240L224.09 238.83L222.81 237.99L217.01 214.48L213.10 214.48C211.25 221.89 209.24 230.66 207.47 238.11L206.18 238.83L206.18 240L211.25 240L211.25 238.83L209.92 238.15L211.09 233.20ZM214.35 219.11L217.09 231.02L211.57 231.02C212.50 226.84 213.55 222.25 214.31 219.11ZM239.83 240L239.83 234.32L238.14 234.32L236.85 237.71L230.86 237.71L230.86 237.50C231.50 237.30 231.66 236.98 231.66 236.38L231.66 228.53L234.96 228.53L235.97 230.38L237.10 230.38L237.10 224.26L235.97 224.26L234.96 226.23L231.66 226.23L231.66 216.85L236.41 216.85L237.46 220.28L239.35 220.28L239.35 214.60L226.39 214.60L226.39 215.57L227.72 216.57L227.72 237.79L226.15 238.91L226.15 240ZM251.83 235.53C250.34 229.17 248.89 222.97 247.40 216.61L248.77 215.69L248.77 214.60L242.01 214.60L242.01 215.77L243.38 216.61L249.13 240.12L253.04 240.12L258.67 216.49L260.04 215.77L260.04 214.60L254.85 214.60L254.85 215.77L256.26 216.45C254.81 222.81 253.32 229.17 251.83 235.53Z" fill="#000000" style="fill: rgb(0, 0, 0);"/>
    </g>
    <g id="SvgjsG1019" rel="mainfill" name="symbol" transform="matrix(1, 0, 0, 1, 83.948486, 80.55761)" fill="#464646">
      <rect x="61.724" y="32.726" transform="matrix(0.7068 -0.7074 0.7074 0.7068 -7.5971 56.1972)" fill="none" stroke="" stroke-linecap="round" stroke-linejoin="round" stroke-miterlimit="10" width="4.539" height="9.074"/>
      <rect x="34.994" y="59.457" transform="matrix(0.7071 -0.7071 0.7071 0.7071 -34.3363 45.0912)" fill="none" stroke="" stroke-linecap="round" stroke-linejoin="round" stroke-miterlimit="10" width="4.535" height="9.072"/>
      <path fill="#464646" stroke="" stroke-linecap="round" stroke-linejoin="round" stroke-miterlimit="10" d="M27.104,86.977  L14.275,74.15c0,0-0.962,0.958-2.137,2.137c-1.178,1.174-1.178,3.1,0,4.274l8.551,8.555c1.179,1.178,3.101,1.178,4.279,0  C26.143,87.941,27.104,86.977,27.104,86.977z" style="fill: rgb(70, 70, 70);"/>
      <path fill="#464646" stroke="" stroke-linecap="round" stroke-linejoin="round" stroke-miterlimit="10" d="M37.797,84.841  L16.414,63.457l-4.275,4.275c-1.178,1.179-1.178,3.101,0,4.279l17.105,17.104c1.178,1.178,3.101,1.178,4.275,0L37.797,84.841z" style="fill: rgb(70, 70, 70);"/>
      <path fill="#464646" stroke="" stroke-linecap="round" stroke-linejoin="round" stroke-miterlimit="10" d="M50.626,80.562  L20.689,50.628l-6.414,6.414c-1.175,1.177-1.175,3.101,0,4.277l25.658,25.657c1.179,1.175,3.101,1.175,4.279,0L50.626,80.562z" style="fill: rgb(70, 70, 70);"/>
      <path fill="#464646" stroke="" stroke-linecap="round" stroke-linejoin="round" stroke-miterlimit="10" d="M74.151,14.276  l12.825,12.829c0,0,0.965-0.961,2.14-2.136c1.175-1.178,1.175-3.101,0-4.278l-8.554-8.551c-1.179-1.179-3.101-1.179-4.275,0  C75.108,13.315,74.151,14.276,74.151,14.276z" style="fill: rgb(70, 70, 70);"/>
      <path fill="#464646" stroke="" stroke-linecap="round" stroke-linejoin="round" stroke-miterlimit="10" d="M63.458,16.416  l21.383,21.383l4.275-4.278c1.179-1.175,1.179-3.101,0-4.275L72.012,12.14c-1.178-1.179-3.101-1.179-4.279,0L63.458,16.416z" style="fill: rgb(70, 70, 70);"/>
      <path fill="#464646" stroke="" stroke-linecap="round" stroke-linejoin="round" stroke-miterlimit="10" d="M50.626,20.694  l29.937,29.934l6.414-6.415c1.179-1.178,1.179-3.101,0-4.278L61.318,14.276c-1.175-1.175-3.101-1.175-4.279,0L50.626,20.694z" style="fill: rgb(70, 70, 70);"/>
      <rect x="29.868" y="48.704" transform="matrix(0.7073 -0.7069 0.7069 0.7073 -40.2096 42.6383)" fill="none" stroke="" stroke-linecap="round" stroke-linejoin="round" stroke-miterlimit="10" width="3.025" height="42.335"/>
      <rect x="68.36" y="10.218" transform="matrix(0.7073 -0.7069 0.7069 0.7073 -1.733 58.5833)" fill="none" stroke="" stroke-linecap="round" stroke-linejoin="round" stroke-miterlimit="10" width="3.025" height="42.332"/>
      <path fill="#464646" stroke="" stroke-linecap="round" stroke-linejoin="round" stroke-miterlimit="10" d="M39.937,27.109  c4.03,4.03,6.046,9.315,6.046,14.6c9.637,6.987,21.909,17.631,34.58,30.303l4.278,4.271c2.363,2.363,2.36,6.194,0,8.554  c-2.363,2.363-6.19,2.363-8.554,0l-4.275-4.275C59.341,67.891,48.694,55.62,41.705,45.984c-5.698,0-10.859-2.308-14.601-6.046  L10,22.83l12.829,12.83c1.182,1.182,3.098,1.182,4.279,0c1.178-1.179,1.178-3.094-0.004-4.275l-12.829-12.83l12.829,12.83  c1.182,1.182,3.097,1.182,4.278,0s1.182-3.098,0-4.275L18.553,14.276l12.829,12.833c1.182,1.178,3.094,1.178,4.275,0  c1.182-1.182,1.182-3.098,0-4.279L22.829,10L39.937,27.109z" style="fill: rgb(70, 70, 70);"/>
      <path fill="#464646" stroke="" stroke-linecap="round" stroke-linejoin="round" stroke-miterlimit="10" d="M57.174,50.498  l8.423-8.42l-6.414-6.418l-9.118,9.115C52.33,46.518,54.711,48.437,57.174,50.498z" style="fill: rgb(70, 70, 70);"/>
      <path fill="#464646" stroke="" stroke-linecap="round" stroke-linejoin="round" stroke-miterlimit="10" d="M44.77,50.07  l-9.112,9.112l6.415,6.415l8.423-8.423C48.436,54.71,46.517,52.331,44.77,50.07z" style="fill: rgb(70, 70, 70);"/>
    </g>
  </g>
</svg>