<?xml version="1.0" encoding="utf-8"?>
<svg version="1.1" id="Capa_1" x="0px" y="0px" viewBox="0 0 512 512" style="enable-background:new 0 0 512 512;" xmlns="http://www.w3.org/2000/svg">
  <defs>
    <linearGradient gradientUnits="userSpaceOnUse" x1="256" y1="0" x2="256" y2="512" id="gradient-0" gradientTransform="matrix(1, 0, 0, 0.939235, 0, 31.111732)">
      <stop offset="0" style="stop-color: rgba(76, 175, 79, 1)"/>
      <stop offset="1" style="stop-color: rgba(45, 104, 47, 1)"/>
    </linearGradient>
  </defs>
  <g transform="matrix(0.874105, 0, 0, 0.871641, 17.374302, 14.610821)">
    <path style="fill: url(#gradient-0); stroke-width: 0.939;" d="M 256.064 31.112 L 255.936 31.112 L 255.936 31.112 C 114.784 31.112 0 138.951 0 271.556 C 0 324.153 18.048 372.903 48.736 412.486 L 16.832 501.811 L 115.232 472.267 C 155.712 497.453 204 512 256.064 512 C 397.216 512 512 404.131 512 271.556 C 512 138.981 397.216 31.112 256.064 31.112 Z"/>
    <path style="fill:#FAFAFA;" d="M 405.024 361.504 C 398.848 378.944 374.336 393.408 354.784 397.632 C 341.408 400.48 323.936 402.752 265.12 378.368 C 189.888 347.2 141.44 270.752 137.664 265.792 C 134.048 260.832 107.264 225.312 107.264 188.576 C 107.264 151.84 125.92 133.952 133.44 126.272 C 139.616 119.968 149.824 117.088 159.616 117.088 C 162.784 117.088 165.632 117.248 168.192 117.376 C 175.712 117.696 179.488 118.144 184.448 130.016 C 190.624 144.896 205.664 181.632 207.456 185.408 C 209.28 189.184 211.104 194.304 208.544 199.264 C 206.144 204.384 204.032 206.656 200.256 211.008 C 196.48 215.36 192.896 218.688 189.12 223.36 C 185.664 227.424 181.76 231.776 186.112 239.296 C 190.464 246.656 205.504 271.2 227.648 290.912 C 256.224 316.352 279.392 324.48 287.68 327.936 C 293.856 330.496 301.216 329.888 305.728 325.088 C 311.456 318.912 318.528 308.672 325.728 298.592 C 330.848 291.36 337.312 290.464 344.096 293.024 C 351.008 295.424 387.584 313.504 395.104 317.248 C 402.624 321.024 407.584 322.816 409.408 325.984 C 411.2 329.152 411.2 344.032 405.024 361.504 Z"/>
  </g>
</svg>